<mxfile host="app.diagrams.net" agent="Mozilla/5.0 (Windows NT 10.0; Win64; x64) AppleWebKit/537.36 (KHTML, like Gecko) Chrome/131.0.0.0 Safari/537.36" version="24.8.3">
  <diagram name="Page-1" id="Sdm1zZ7LPMUPEqGThzmO">
    <mxGraphModel dx="860" dy="914" grid="1" gridSize="10" guides="1" tooltips="1" connect="1" arrows="1" fold="1" page="1" pageScale="1" pageWidth="850" pageHeight="1100" math="0" shadow="0">
      <root>
        <mxCell id="0" />
        <mxCell id="1" parent="0" />
        <mxCell id="uekYNwwfkWTpfSnnIGin-79" style="edgeStyle=none;shape=connector;rounded=0;orthogonalLoop=1;jettySize=auto;html=1;entryX=0;entryY=0.5;entryDx=0;entryDy=0;strokeColor=default;align=center;verticalAlign=middle;fontFamily=Helvetica;fontSize=11;fontColor=default;labelBackgroundColor=default;endArrow=none;" edge="1" parent="1" source="uekYNwwfkWTpfSnnIGin-24" target="uekYNwwfkWTpfSnnIGin-25">
          <mxGeometry relative="1" as="geometry" />
        </mxCell>
        <mxCell id="uekYNwwfkWTpfSnnIGin-24" value="user" style="rounded=0;whiteSpace=wrap;html=1;" vertex="1" parent="1">
          <mxGeometry x="215" y="260" width="120" height="40" as="geometry" />
        </mxCell>
        <mxCell id="uekYNwwfkWTpfSnnIGin-25" value="transaction" style="rounded=0;whiteSpace=wrap;html=1;" vertex="1" parent="1">
          <mxGeometry x="495" y="260" width="120" height="40" as="geometry" />
        </mxCell>
        <mxCell id="uekYNwwfkWTpfSnnIGin-62" style="edgeStyle=none;shape=connector;rounded=0;orthogonalLoop=1;jettySize=auto;html=1;exitX=1;exitY=0.5;exitDx=0;exitDy=0;entryX=0;entryY=0.25;entryDx=0;entryDy=0;strokeColor=default;align=center;verticalAlign=middle;fontFamily=Helvetica;fontSize=11;fontColor=default;labelBackgroundColor=default;endArrow=none;" edge="1" parent="1" source="uekYNwwfkWTpfSnnIGin-27" target="uekYNwwfkWTpfSnnIGin-24">
          <mxGeometry relative="1" as="geometry" />
        </mxCell>
        <mxCell id="uekYNwwfkWTpfSnnIGin-27" value="firstName" style="ellipse;whiteSpace=wrap;html=1;align=center;" vertex="1" parent="1">
          <mxGeometry x="75" y="230" width="100" height="40" as="geometry" />
        </mxCell>
        <mxCell id="uekYNwwfkWTpfSnnIGin-63" style="edgeStyle=none;shape=connector;rounded=0;orthogonalLoop=1;jettySize=auto;html=1;exitX=1;exitY=0.5;exitDx=0;exitDy=0;entryX=0;entryY=0.75;entryDx=0;entryDy=0;strokeColor=default;align=center;verticalAlign=middle;fontFamily=Helvetica;fontSize=11;fontColor=default;labelBackgroundColor=default;endArrow=none;" edge="1" parent="1" source="uekYNwwfkWTpfSnnIGin-30" target="uekYNwwfkWTpfSnnIGin-24">
          <mxGeometry relative="1" as="geometry" />
        </mxCell>
        <mxCell id="uekYNwwfkWTpfSnnIGin-30" value="lastName" style="ellipse;whiteSpace=wrap;html=1;align=center;" vertex="1" parent="1">
          <mxGeometry x="75" y="290" width="100" height="40" as="geometry" />
        </mxCell>
        <mxCell id="uekYNwwfkWTpfSnnIGin-31" value="email" style="ellipse;whiteSpace=wrap;html=1;align=center;" vertex="1" parent="1">
          <mxGeometry x="155" y="350" width="100" height="40" as="geometry" />
        </mxCell>
        <mxCell id="uekYNwwfkWTpfSnnIGin-61" style="edgeStyle=none;shape=connector;rounded=0;orthogonalLoop=1;jettySize=auto;html=1;exitX=0.5;exitY=1;exitDx=0;exitDy=0;entryX=0.25;entryY=0;entryDx=0;entryDy=0;strokeColor=default;align=center;verticalAlign=middle;fontFamily=Helvetica;fontSize=11;fontColor=default;labelBackgroundColor=default;endArrow=none;" edge="1" parent="1" source="uekYNwwfkWTpfSnnIGin-32" target="uekYNwwfkWTpfSnnIGin-24">
          <mxGeometry relative="1" as="geometry" />
        </mxCell>
        <mxCell id="uekYNwwfkWTpfSnnIGin-32" value="&lt;u&gt;userId&lt;/u&gt;" style="ellipse;whiteSpace=wrap;html=1;align=center;" vertex="1" parent="1">
          <mxGeometry x="155" y="180" width="100" height="40" as="geometry" />
        </mxCell>
        <mxCell id="uekYNwwfkWTpfSnnIGin-33" value="password" style="ellipse;whiteSpace=wrap;html=1;align=center;" vertex="1" parent="1">
          <mxGeometry x="275" y="360" width="100" height="40" as="geometry" />
        </mxCell>
        <mxCell id="uekYNwwfkWTpfSnnIGin-60" style="edgeStyle=none;shape=connector;rounded=0;orthogonalLoop=1;jettySize=auto;html=1;exitX=0.5;exitY=1;exitDx=0;exitDy=0;entryX=0.75;entryY=0;entryDx=0;entryDy=0;strokeColor=default;align=center;verticalAlign=middle;fontFamily=Helvetica;fontSize=11;fontColor=default;labelBackgroundColor=default;endArrow=none;" edge="1" parent="1" source="uekYNwwfkWTpfSnnIGin-34" target="uekYNwwfkWTpfSnnIGin-24">
          <mxGeometry relative="1" as="geometry" />
        </mxCell>
        <mxCell id="uekYNwwfkWTpfSnnIGin-34" value="userName" style="ellipse;whiteSpace=wrap;html=1;align=center;" vertex="1" parent="1">
          <mxGeometry x="275" y="170" width="100" height="40" as="geometry" />
        </mxCell>
        <mxCell id="uekYNwwfkWTpfSnnIGin-64" style="edgeStyle=none;shape=connector;rounded=0;orthogonalLoop=1;jettySize=auto;html=1;exitX=0.5;exitY=1;exitDx=0;exitDy=0;entryX=0.25;entryY=0;entryDx=0;entryDy=0;strokeColor=default;align=center;verticalAlign=middle;fontFamily=Helvetica;fontSize=11;fontColor=default;labelBackgroundColor=default;endArrow=none;" edge="1" parent="1" source="uekYNwwfkWTpfSnnIGin-35" target="uekYNwwfkWTpfSnnIGin-25">
          <mxGeometry relative="1" as="geometry" />
        </mxCell>
        <mxCell id="uekYNwwfkWTpfSnnIGin-35" value="userId" style="ellipse;whiteSpace=wrap;html=1;align=center;" vertex="1" parent="1">
          <mxGeometry x="435" y="170" width="100" height="40" as="geometry" />
        </mxCell>
        <mxCell id="uekYNwwfkWTpfSnnIGin-65" style="edgeStyle=none;shape=connector;rounded=0;orthogonalLoop=1;jettySize=auto;html=1;entryX=0.5;entryY=0;entryDx=0;entryDy=0;strokeColor=default;align=center;verticalAlign=middle;fontFamily=Helvetica;fontSize=11;fontColor=default;labelBackgroundColor=default;endArrow=none;" edge="1" parent="1" source="uekYNwwfkWTpfSnnIGin-36" target="uekYNwwfkWTpfSnnIGin-25">
          <mxGeometry relative="1" as="geometry" />
        </mxCell>
        <mxCell id="uekYNwwfkWTpfSnnIGin-36" value="&lt;u&gt;transactionId&lt;/u&gt;" style="ellipse;whiteSpace=wrap;html=1;align=center;" vertex="1" parent="1">
          <mxGeometry x="505" y="120" width="100" height="40" as="geometry" />
        </mxCell>
        <mxCell id="uekYNwwfkWTpfSnnIGin-37" value="date" style="ellipse;whiteSpace=wrap;html=1;align=center;" vertex="1" parent="1">
          <mxGeometry x="435" y="350" width="100" height="40" as="geometry" />
        </mxCell>
        <mxCell id="uekYNwwfkWTpfSnnIGin-69" style="edgeStyle=none;shape=connector;rounded=0;orthogonalLoop=1;jettySize=auto;html=1;exitX=0.5;exitY=0;exitDx=0;exitDy=0;entryX=0.75;entryY=1;entryDx=0;entryDy=0;strokeColor=default;align=center;verticalAlign=middle;fontFamily=Helvetica;fontSize=11;fontColor=default;labelBackgroundColor=default;endArrow=none;" edge="1" parent="1" source="uekYNwwfkWTpfSnnIGin-38" target="uekYNwwfkWTpfSnnIGin-25">
          <mxGeometry relative="1" as="geometry" />
        </mxCell>
        <mxCell id="uekYNwwfkWTpfSnnIGin-38" value="type" style="ellipse;whiteSpace=wrap;html=1;align=center;" vertex="1" parent="1">
          <mxGeometry x="575" y="350" width="100" height="40" as="geometry" />
        </mxCell>
        <mxCell id="uekYNwwfkWTpfSnnIGin-67" style="edgeStyle=none;shape=connector;rounded=0;orthogonalLoop=1;jettySize=auto;html=1;exitX=0;exitY=0.5;exitDx=0;exitDy=0;entryX=1;entryY=0.25;entryDx=0;entryDy=0;strokeColor=default;align=center;verticalAlign=middle;fontFamily=Helvetica;fontSize=11;fontColor=default;labelBackgroundColor=default;endArrow=none;" edge="1" parent="1" source="uekYNwwfkWTpfSnnIGin-39" target="uekYNwwfkWTpfSnnIGin-25">
          <mxGeometry relative="1" as="geometry" />
        </mxCell>
        <mxCell id="uekYNwwfkWTpfSnnIGin-39" value="amount" style="ellipse;whiteSpace=wrap;html=1;align=center;" vertex="1" parent="1">
          <mxGeometry x="675" y="230" width="100" height="40" as="geometry" />
        </mxCell>
        <mxCell id="uekYNwwfkWTpfSnnIGin-68" style="edgeStyle=none;shape=connector;rounded=0;orthogonalLoop=1;jettySize=auto;html=1;exitX=0;exitY=0.5;exitDx=0;exitDy=0;entryX=1;entryY=0.75;entryDx=0;entryDy=0;strokeColor=default;align=center;verticalAlign=middle;fontFamily=Helvetica;fontSize=11;fontColor=default;labelBackgroundColor=default;endArrow=none;" edge="1" parent="1" source="uekYNwwfkWTpfSnnIGin-40" target="uekYNwwfkWTpfSnnIGin-25">
          <mxGeometry relative="1" as="geometry" />
        </mxCell>
        <mxCell id="uekYNwwfkWTpfSnnIGin-40" value="categoryId" style="ellipse;whiteSpace=wrap;html=1;align=center;" vertex="1" parent="1">
          <mxGeometry x="675" y="290" width="100" height="40" as="geometry" />
        </mxCell>
        <mxCell id="uekYNwwfkWTpfSnnIGin-66" style="edgeStyle=none;shape=connector;rounded=0;orthogonalLoop=1;jettySize=auto;html=1;exitX=0.5;exitY=1;exitDx=0;exitDy=0;entryX=0.75;entryY=0;entryDx=0;entryDy=0;strokeColor=default;align=center;verticalAlign=middle;fontFamily=Helvetica;fontSize=11;fontColor=default;labelBackgroundColor=default;endArrow=none;" edge="1" parent="1" source="uekYNwwfkWTpfSnnIGin-41" target="uekYNwwfkWTpfSnnIGin-25">
          <mxGeometry relative="1" as="geometry" />
        </mxCell>
        <mxCell id="uekYNwwfkWTpfSnnIGin-41" value="description" style="ellipse;whiteSpace=wrap;html=1;align=center;" vertex="1" parent="1">
          <mxGeometry x="575" y="170" width="100" height="40" as="geometry" />
        </mxCell>
        <mxCell id="uekYNwwfkWTpfSnnIGin-72" style="edgeStyle=none;shape=connector;rounded=0;orthogonalLoop=1;jettySize=auto;html=1;exitX=0.25;exitY=1;exitDx=0;exitDy=0;entryX=0.5;entryY=0;entryDx=0;entryDy=0;strokeColor=default;align=center;verticalAlign=middle;fontFamily=Helvetica;fontSize=11;fontColor=default;labelBackgroundColor=default;endArrow=none;" edge="1" parent="1" source="uekYNwwfkWTpfSnnIGin-43" target="uekYNwwfkWTpfSnnIGin-45">
          <mxGeometry relative="1" as="geometry" />
        </mxCell>
        <mxCell id="uekYNwwfkWTpfSnnIGin-73" style="edgeStyle=none;shape=connector;rounded=0;orthogonalLoop=1;jettySize=auto;html=1;exitX=0.75;exitY=1;exitDx=0;exitDy=0;entryX=0.5;entryY=0;entryDx=0;entryDy=0;strokeColor=default;align=center;verticalAlign=middle;fontFamily=Helvetica;fontSize=11;fontColor=default;labelBackgroundColor=default;endArrow=none;" edge="1" parent="1" source="uekYNwwfkWTpfSnnIGin-43" target="uekYNwwfkWTpfSnnIGin-46">
          <mxGeometry relative="1" as="geometry" />
        </mxCell>
        <mxCell id="uekYNwwfkWTpfSnnIGin-78" style="edgeStyle=none;shape=connector;rounded=0;orthogonalLoop=1;jettySize=auto;html=1;exitX=0.5;exitY=0;exitDx=0;exitDy=0;entryX=0.5;entryY=1;entryDx=0;entryDy=0;strokeColor=default;align=center;verticalAlign=middle;fontFamily=Helvetica;fontSize=11;fontColor=default;labelBackgroundColor=default;endArrow=none;" edge="1" parent="1" source="uekYNwwfkWTpfSnnIGin-43" target="uekYNwwfkWTpfSnnIGin-25">
          <mxGeometry relative="1" as="geometry" />
        </mxCell>
        <mxCell id="uekYNwwfkWTpfSnnIGin-43" value="category" style="rounded=0;whiteSpace=wrap;html=1;" vertex="1" parent="1">
          <mxGeometry x="495" y="520" width="120" height="40" as="geometry" />
        </mxCell>
        <mxCell id="uekYNwwfkWTpfSnnIGin-45" value="&lt;u&gt;categoryId&lt;/u&gt;" style="ellipse;whiteSpace=wrap;html=1;align=center;" vertex="1" parent="1">
          <mxGeometry x="435" y="600" width="100" height="40" as="geometry" />
        </mxCell>
        <mxCell id="uekYNwwfkWTpfSnnIGin-46" value="categoryName" style="ellipse;whiteSpace=wrap;html=1;align=center;" vertex="1" parent="1">
          <mxGeometry x="575" y="600" width="100" height="40" as="geometry" />
        </mxCell>
        <mxCell id="uekYNwwfkWTpfSnnIGin-57" value="" style="endArrow=none;html=1;rounded=0;strokeColor=default;align=center;verticalAlign=middle;fontFamily=Helvetica;fontSize=11;fontColor=default;labelBackgroundColor=default;entryX=0.5;entryY=0;entryDx=0;entryDy=0;exitX=0.75;exitY=1;exitDx=0;exitDy=0;" edge="1" parent="1" source="uekYNwwfkWTpfSnnIGin-24" target="uekYNwwfkWTpfSnnIGin-33">
          <mxGeometry width="50" height="50" relative="1" as="geometry">
            <mxPoint x="400" y="480" as="sourcePoint" />
            <mxPoint x="450" y="430" as="targetPoint" />
          </mxGeometry>
        </mxCell>
        <mxCell id="uekYNwwfkWTpfSnnIGin-58" value="" style="endArrow=none;html=1;rounded=0;strokeColor=default;align=center;verticalAlign=middle;fontFamily=Helvetica;fontSize=11;fontColor=default;labelBackgroundColor=default;entryX=0.5;entryY=0;entryDx=0;entryDy=0;exitX=0.25;exitY=1;exitDx=0;exitDy=0;" edge="1" parent="1" source="uekYNwwfkWTpfSnnIGin-24" target="uekYNwwfkWTpfSnnIGin-31">
          <mxGeometry width="50" height="50" relative="1" as="geometry">
            <mxPoint x="315" y="310" as="sourcePoint" />
            <mxPoint x="335" y="370" as="targetPoint" />
          </mxGeometry>
        </mxCell>
        <mxCell id="uekYNwwfkWTpfSnnIGin-70" style="edgeStyle=none;shape=connector;rounded=0;orthogonalLoop=1;jettySize=auto;html=1;entryX=0.25;entryY=1;entryDx=0;entryDy=0;strokeColor=default;align=center;verticalAlign=middle;fontFamily=Helvetica;fontSize=11;fontColor=default;labelBackgroundColor=default;endArrow=none;" edge="1" parent="1" source="uekYNwwfkWTpfSnnIGin-37" target="uekYNwwfkWTpfSnnIGin-25">
          <mxGeometry relative="1" as="geometry" />
        </mxCell>
        <mxCell id="uekYNwwfkWTpfSnnIGin-80" value="1" style="text;html=1;align=center;verticalAlign=middle;resizable=0;points=[];autosize=1;strokeColor=none;fillColor=none;fontFamily=Helvetica;fontSize=11;fontColor=default;labelBackgroundColor=default;" vertex="1" parent="1">
          <mxGeometry x="335" y="250" width="30" height="30" as="geometry" />
        </mxCell>
        <mxCell id="uekYNwwfkWTpfSnnIGin-81" value="M" style="text;html=1;align=center;verticalAlign=middle;resizable=0;points=[];autosize=1;strokeColor=none;fillColor=none;fontFamily=Helvetica;fontSize=11;fontColor=default;labelBackgroundColor=default;" vertex="1" parent="1">
          <mxGeometry x="465" y="250" width="30" height="30" as="geometry" />
        </mxCell>
        <mxCell id="uekYNwwfkWTpfSnnIGin-82" value="1" style="text;html=1;align=center;verticalAlign=middle;resizable=0;points=[];autosize=1;strokeColor=none;fillColor=none;fontFamily=Helvetica;fontSize=11;fontColor=default;labelBackgroundColor=default;" vertex="1" parent="1">
          <mxGeometry x="530" y="490" width="30" height="30" as="geometry" />
        </mxCell>
        <mxCell id="uekYNwwfkWTpfSnnIGin-83" value="M" style="text;html=1;align=center;verticalAlign=middle;resizable=0;points=[];autosize=1;strokeColor=none;fillColor=none;fontFamily=Helvetica;fontSize=11;fontColor=default;labelBackgroundColor=default;" vertex="1" parent="1">
          <mxGeometry x="530" y="295" width="30" height="30" as="geometry" />
        </mxCell>
        <mxCell id="uekYNwwfkWTpfSnnIGin-87" style="edgeStyle=none;shape=connector;rounded=0;orthogonalLoop=1;jettySize=auto;html=1;exitX=0;exitY=0;exitDx=0;exitDy=0;entryX=1;entryY=1;entryDx=0;entryDy=0;strokeColor=default;align=center;verticalAlign=middle;fontFamily=Helvetica;fontSize=11;fontColor=default;labelBackgroundColor=default;endArrow=none;" edge="1" parent="1" source="uekYNwwfkWTpfSnnIGin-84" target="uekYNwwfkWTpfSnnIGin-38">
          <mxGeometry relative="1" as="geometry" />
        </mxCell>
        <mxCell id="uekYNwwfkWTpfSnnIGin-84" value="expenseType" style="ellipse;whiteSpace=wrap;html=1;align=center;" vertex="1" parent="1">
          <mxGeometry x="700" y="390" width="100" height="40" as="geometry" />
        </mxCell>
        <mxCell id="uekYNwwfkWTpfSnnIGin-86" style="edgeStyle=none;shape=connector;rounded=0;orthogonalLoop=1;jettySize=auto;html=1;exitX=0.5;exitY=0;exitDx=0;exitDy=0;entryX=1;entryY=1;entryDx=0;entryDy=0;strokeColor=default;align=center;verticalAlign=middle;fontFamily=Helvetica;fontSize=11;fontColor=default;labelBackgroundColor=default;endArrow=none;" edge="1" parent="1" source="uekYNwwfkWTpfSnnIGin-85" target="uekYNwwfkWTpfSnnIGin-38">
          <mxGeometry relative="1" as="geometry" />
        </mxCell>
        <mxCell id="uekYNwwfkWTpfSnnIGin-85" value="incomeType" style="ellipse;whiteSpace=wrap;html=1;align=center;" vertex="1" parent="1">
          <mxGeometry x="600" y="430" width="100" height="40" as="geometry" />
        </mxCell>
      </root>
    </mxGraphModel>
  </diagram>
</mxfile>
